<svg xmlns="http://www.w3.org/2000/svg" viewBox="0 0 96 96" role="img" aria-labelledby="title">
  <title id="title">Customer Voice</title>
  <defs>
    <linearGradient id="gradient" x1="0%" y1="0%" x2="100%" y2="100%">
      <stop offset="0%" stop-color="#0F52BA"/>
      <stop offset="50%" stop-color="#00A86B"/>
      <stop offset="100%" stop-color="#E31B54"/>
    </linearGradient>
  </defs>
  <rect width="96" height="96" rx="20" fill="url(#gradient)"/>
  <path fill="#fff" d="M46.5 66c8.8 0 16-5.7 18.2-14.6l.3-1.4h8v-9h-6.7c.2-1.4.3-2.8.3-4.2C66.6 25.6 57.5 18 46 18c-8.9 0-15.2 3.6-19.6 9.3-4.3 5.7-6 13.3-5.6 20.7h-6v9h7.5c1.9 10.3 10.1 19 24.2 19Zm-9.9-25C38 34.3 43 30 48 30c4.7 0 8 3.2 7.7 8.6-.2 3.6-1.5 7.8-3.1 11.4H36.6c.1-2.8.4-6 1.4-9Z"/>
</svg>
