<svg width="800" height="500" viewBox="0 0 800 500" xmlns="http://www.w3.org/2000/svg">
  <rect width="800" height="500" rx="32" fill="#F7F8FA" />
  <rect x="40" y="48" width="720" height="120" rx="28" fill="#FFFFFF" stroke="#EEF0F3" stroke-width="2" />
  <rect x="64" y="70" width="180" height="22" rx="11" fill="#0F52BA" opacity="0.12" />
  <rect x="64" y="102" width="280" height="28" rx="14" fill="#0B1220" opacity="0.75" />
  <rect x="64" y="140" width="220" height="14" rx="7" fill="#0B1220" opacity="0.35" />
  <rect x="320" y="140" width="160" height="14" rx="7" fill="#0B1220" opacity="0.18" />

  <rect x="40" y="190" width="340" height="250" rx="24" fill="#FFFFFF" stroke="#EEF0F3" stroke-width="2" />
  <rect x="64" y="214" width="160" height="18" rx="9" fill="#00A86B" opacity="0.18" />
  <rect x="64" y="244" width="240" height="14" rx="7" fill="#0B1220" opacity="0.45" />
  <rect x="64" y="270" width="240" height="14" rx="7" fill="#0B1220" opacity="0.45" />
  <rect x="64" y="296" width="240" height="14" rx="7" fill="#0B1220" opacity="0.45" />
  <rect x="64" y="330" width="220" height="12" rx="6" fill="#0B1220" opacity="0.18" />
  <rect x="64" y="352" width="220" height="12" rx="6" fill="#0B1220" opacity="0.18" />
  <rect x="64" y="374" width="220" height="12" rx="6" fill="#0B1220" opacity="0.18" />
  <rect x="64" y="410" width="120" height="20" rx="10" fill="#0F52BA" opacity="0.15" />

  <rect x="420" y="190" width="340" height="120" rx="24" fill="#FFFFFF" stroke="#EEF0F3" stroke-width="2" />
  <rect x="444" y="214" width="148" height="18" rx="9" fill="#E31B54" opacity="0.18" />
  <rect x="444" y="244" width="260" height="14" rx="7" fill="#0B1220" opacity="0.45" />
  <rect x="444" y="270" width="200" height="12" rx="6" fill="#0B1220" opacity="0.18" />

  <rect x="420" y="330" width="340" height="110" rx="24" fill="#FFFFFF" stroke="#EEF0F3" stroke-width="2" />
  <rect x="444" y="354" width="120" height="18" rx="9" fill="#00A86B" opacity="0.18" />
  <rect x="444" y="384" width="220" height="14" rx="7" fill="#0B1220" opacity="0.45" />
  <rect x="444" y="410" width="180" height="12" rx="6" fill="#0B1220" opacity="0.2" />
</svg>
