<svg width="800" height="500" viewBox="0 0 800 500" xmlns="http://www.w3.org/2000/svg">
  <rect width="800" height="500" rx="32" fill="#F7F8FA" />
  <rect x="40" y="48" width="720" height="72" rx="20" fill="#FFFFFF" stroke="#EEF0F3" stroke-width="2" />
  <rect x="64" y="70" width="200" height="20" rx="10" fill="#0B1220" opacity="0.7" />
  <rect x="280" y="70" width="140" height="20" rx="10" fill="#0B1220" opacity="0.2" />
  <rect x="440" y="70" width="160" height="20" rx="10" fill="#0B1220" opacity="0.2" />

  <rect x="40" y="140" width="720" height="300" rx="28" fill="#FFFFFF" stroke="#EEF0F3" stroke-width="2" />
  <g transform="translate(72 172)">
    <rect width="120" height="34" rx="12" fill="#F7F8FA" />
    <rect x="0" y="56" width="120" height="34" rx="12" fill="#F7F8FA" />
    <rect x="0" y="112" width="120" height="34" rx="12" fill="#F7F8FA" />
    <rect x="0" y="168" width="120" height="34" rx="12" fill="#F7F8FA" />
    <rect x="152" width="96" height="96" rx="12" fill="#0F52BA" opacity="0.18" />
    <rect x="152" y="112" width="96" height="96" rx="12" fill="#00A86B" opacity="0.18" />
    <rect x="264" width="96" height="96" rx="12" fill="#00A86B" opacity="0.32" />
    <rect x="264" y="112" width="96" height="96" rx="12" fill="#0F52BA" opacity="0.12" />
    <rect x="376" width="96" height="96" rx="12" fill="#E31B54" opacity="0.28" />
    <rect x="376" y="112" width="96" height="96" rx="12" fill="#00A86B" opacity="0.12" />
    <rect x="488" width="96" height="96" rx="12" fill="#0F52BA" opacity="0.08" />
    <rect x="488" y="112" width="96" height="96" rx="12" fill="#E31B54" opacity="0.24" />
  </g>
  <rect x="72" y="388" width="200" height="16" rx="8" fill="#0B1220" opacity="0.2" />
  <rect x="292" y="388" width="160" height="16" rx="8" fill="#0B1220" opacity="0.12" />
  <rect x="472" y="388" width="160" height="16" rx="8" fill="#0B1220" opacity="0.12" />
</svg>
